<svg width="165" height="183" viewBox="0 0 165 183" fill="none" xmlns="http://www.w3.org/2000/svg">
<path d="M65 147.162L59 170.162" stroke="#0F5CA6" stroke-width="3" stroke-miterlimit="10"/>
<path d="M25.6 170C25.1192 170 65.5957 170 65.5957 170" stroke="#0F5CA6" stroke-width="3" stroke-miterlimit="10"/>
<path d="M30.5 181L52.5 170" stroke="#0F5CA6" stroke-width="3" stroke-miterlimit="10"/>
<path d="M97 147L96 171" stroke="#0F5CA6" stroke-width="3" stroke-miterlimit="10"/>
<path d="M72.7997 170C72.3189 170 112.795 170 112.795 170" stroke="#0F5CA6" stroke-width="3" stroke-miterlimit="10"/>
<path d="M77.6001 181L99.6001 170" stroke="#0F5CA6" stroke-width="3" stroke-miterlimit="10"/>
<g opacity="0.3">
<mask id="mask0" mask-type="alpha" maskUnits="userSpaceOnUse" x="0" y="0" width="165" height="150">
<path d="M154.007 36.6351C154.007 36.6351 160.889 31.6677 163.66 34.4175C167.682 38.3205 161.604 59.8758 159.102 66.5287C149.806 88.6162 140.778 101.922 130.052 109.018C130.678 110.881 131.035 112.833 131.035 114.962C131.035 125.074 122.812 133.235 112.622 133.235C112.086 133.235 111.639 133.146 111.192 133.146C111.103 141.484 104.31 148.315 95.8185 148.315C91.6175 148.315 87.8634 146.629 85.0925 143.968C81.696 147.694 76.8693 150 71.4169 150C61.2273 150 53.0041 141.839 53.0041 131.727V126.937C43.0826 123.921 31.9991 118.066 23.8652 106.623C10.1003 87.1969 11.6198 57.8356 17.5191 40.272C16.7146 40.6269 15.9102 40.7156 15.1057 40.5381C11.7985 39.8285 10.1897 34.5949 11.441 28.7404C11.7092 27.2324 12.1561 25.9018 12.7818 24.66H0L14.3013 13.9073V12.5074L10.6366 3.90302L18 4.96689L21.3625 0L27 3.97351L32.6248 3.19338V11.4429C38.7922 16.7652 42.4569 27.6759 49.6075 37.0787C66.054 58.5452 74.0984 62.2708 93.5839 63.1579C113.069 64.0449 154.007 36.6351 154.007 36.6351Z" fill="#C4C4C4"/>
</mask>
<g mask="url(#mask0)">
<circle cx="6.00098" cy="-1" r="2" fill="#0F5CA6"/>
<circle cx="6" cy="11.0002" r="2" fill="#0F5CA6"/>
<circle cx="6" cy="23.0002" r="2" fill="#0F5CA6"/>
<circle cx="6" cy="47.0002" r="2" fill="#0F5CA6"/>
<circle cx="6" cy="35.0002" r="2" fill="#0F5CA6"/>
<circle cx="18.001" cy="-1" r="2" fill="#0F5CA6"/>
<circle cx="18" cy="11.0002" r="2" fill="#0F5CA6"/>
<circle cx="18" cy="23.0002" r="2" fill="#0F5CA6"/>
<circle cx="18" cy="47.0002" r="2" fill="#0F5CA6"/>
<circle cx="18" cy="35.0002" r="2" fill="#0F5CA6"/>
<circle cx="30.001" cy="-1" r="2" fill="#0F5CA6"/>
<circle cx="30" cy="11.0002" r="2" fill="#0F5CA6"/>
<circle cx="30" cy="23.0002" r="2" fill="#0F5CA6"/>
<circle cx="30" cy="47.0002" r="2" fill="#0F5CA6"/>
<circle cx="30" cy="35.0002" r="2" fill="#0F5CA6"/>
<circle cx="42.001" cy="-1" r="2" fill="#0F5CA6"/>
<circle cx="42" cy="11.0002" r="2" fill="#0F5CA6"/>
<circle cx="42" cy="23.0002" r="2" fill="#0F5CA6"/>
<circle cx="42" cy="47.0002" r="2" fill="#0F5CA6"/>
<circle cx="42" cy="35.0002" r="2" fill="#0F5CA6"/>
<circle cx="54.001" cy="-1" r="2" fill="#0F5CA6"/>
<circle cx="54" cy="11.0002" r="2" fill="#0F5CA6"/>
<circle cx="54" cy="23.0002" r="2" fill="#0F5CA6"/>
<circle cx="54" cy="47.0002" r="2" fill="#0F5CA6"/>
<circle cx="54" cy="35.0002" r="2" fill="#0F5CA6"/>
<circle cx="66.001" cy="-1" r="2" fill="#0F5CA6"/>
<circle cx="66" cy="11.0002" r="2" fill="#0F5CA6"/>
<circle cx="66" cy="23.0002" r="2" fill="#0F5CA6"/>
<circle cx="66" cy="47.0002" r="2" fill="#0F5CA6"/>
<circle cx="66" cy="35.0002" r="2" fill="#0F5CA6"/>
<circle cx="6" cy="71.0002" r="2" fill="#0F5CA6"/>
<circle cx="6" cy="59.0002" r="2" fill="#0F5CA6"/>
<circle cx="18" cy="71.0002" r="2" fill="#0F5CA6"/>
<circle cx="18" cy="59.0002" r="2" fill="#0F5CA6"/>
<circle cx="30" cy="71.0002" r="2" fill="#0F5CA6"/>
<circle cx="30" cy="59.0002" r="2" fill="#0F5CA6"/>
<circle cx="42" cy="71.0002" r="2" fill="#0F5CA6"/>
<circle cx="42" cy="59.0002" r="2" fill="#0F5CA6"/>
<circle cx="54" cy="71.0002" r="2" fill="#0F5CA6"/>
<circle cx="54" cy="59.0002" r="2" fill="#0F5CA6"/>
<circle cx="66" cy="71.0002" r="2" fill="#0F5CA6"/>
<circle cx="66" cy="59.0002" r="2" fill="#0F5CA6"/>
<circle cx="6.00098" cy="83" r="2" fill="#0F5CA6"/>
<circle cx="6" cy="95.0002" r="2" fill="#0F5CA6"/>
<circle cx="6" cy="107" r="2" fill="#0F5CA6"/>
<circle cx="6" cy="131" r="2" fill="#0F5CA6"/>
<circle cx="6" cy="119" r="2" fill="#0F5CA6"/>
<circle cx="18.001" cy="83" r="2" fill="#0F5CA6"/>
<circle cx="18" cy="95.0002" r="2" fill="#0F5CA6"/>
<circle cx="18" cy="107" r="2" fill="#0F5CA6"/>
<circle cx="18" cy="131" r="2" fill="#0F5CA6"/>
<circle cx="18" cy="119" r="2" fill="#0F5CA6"/>
<circle cx="30.001" cy="83" r="2" fill="#0F5CA6"/>
<circle cx="30" cy="95.0002" r="2" fill="#0F5CA6"/>
<circle cx="30" cy="107" r="2" fill="#0F5CA6"/>
<circle cx="30" cy="131" r="2" fill="#0F5CA6"/>
<circle cx="30" cy="119" r="2" fill="#0F5CA6"/>
<circle cx="42.001" cy="83" r="2" fill="#0F5CA6"/>
<circle cx="42" cy="95.0002" r="2" fill="#0F5CA6"/>
<circle cx="42" cy="107" r="2" fill="#0F5CA6"/>
<circle cx="42" cy="131" r="2" fill="#0F5CA6"/>
<circle cx="42" cy="119" r="2" fill="#0F5CA6"/>
<circle cx="54.001" cy="83" r="2" fill="#0F5CA6"/>
<circle cx="54" cy="95.0002" r="2" fill="#0F5CA6"/>
<circle cx="54" cy="107" r="2" fill="#0F5CA6"/>
<circle cx="54" cy="131" r="2" fill="#0F5CA6"/>
<circle cx="54" cy="119" r="2" fill="#0F5CA6"/>
<circle cx="66.001" cy="83" r="2" fill="#0F5CA6"/>
<circle cx="66" cy="95.0002" r="2" fill="#0F5CA6"/>
<circle cx="66" cy="107" r="2" fill="#0F5CA6"/>
<circle cx="66" cy="131" r="2" fill="#0F5CA6"/>
<circle cx="66" cy="119" r="2" fill="#0F5CA6"/>
<circle cx="6" cy="143" r="2" fill="#0F5CA6"/>
<circle cx="18" cy="143" r="2" fill="#0F5CA6"/>
<circle cx="30" cy="143" r="2" fill="#0F5CA6"/>
<circle cx="42" cy="143" r="2" fill="#0F5CA6"/>
<circle cx="54" cy="143" r="2" fill="#0F5CA6"/>
<circle cx="66" cy="143" r="2" fill="#0F5CA6"/>
<circle cx="78.001" cy="-0.999817" r="2" fill="#0F5CA6"/>
<circle cx="78" cy="11.0002" r="2" fill="#0F5CA6"/>
<circle cx="78" cy="23.0002" r="2" fill="#0F5CA6"/>
<circle cx="78" cy="47.0002" r="2" fill="#0F5CA6"/>
<circle cx="78" cy="35.0002" r="2" fill="#0F5CA6"/>
<circle cx="90.001" cy="-1" r="2" fill="#0F5CA6"/>
<circle cx="90" cy="11.0002" r="2" fill="#0F5CA6"/>
<circle cx="90" cy="23.0002" r="2" fill="#0F5CA6"/>
<circle cx="90" cy="47.0002" r="2" fill="#0F5CA6"/>
<circle cx="90" cy="35.0002" r="2" fill="#0F5CA6"/>
<circle cx="102.001" cy="-1" r="2" fill="#0F5CA6"/>
<circle cx="102" cy="11.0002" r="2" fill="#0F5CA6"/>
<circle cx="102" cy="23.0002" r="2" fill="#0F5CA6"/>
<circle cx="102" cy="47.0002" r="2" fill="#0F5CA6"/>
<circle cx="102" cy="35.0002" r="2" fill="#0F5CA6"/>
<circle cx="114.001" cy="-1" r="2" fill="#0F5CA6"/>
<circle cx="114" cy="11.0002" r="2" fill="#0F5CA6"/>
<circle cx="114" cy="23.0002" r="2" fill="#0F5CA6"/>
<circle cx="114" cy="47.0002" r="2" fill="#0F5CA6"/>
<circle cx="114" cy="35.0002" r="2" fill="#0F5CA6"/>
<circle cx="126.001" cy="-1" r="2" fill="#0F5CA6"/>
<circle cx="126" cy="11.0002" r="2" fill="#0F5CA6"/>
<circle cx="126" cy="23.0002" r="2" fill="#0F5CA6"/>
<circle cx="126" cy="47.0002" r="2" fill="#0F5CA6"/>
<circle cx="126" cy="35.0002" r="2" fill="#0F5CA6"/>
<circle cx="138.001" cy="-1" r="2" fill="#0F5CA6"/>
<circle cx="138" cy="11.0002" r="2" fill="#0F5CA6"/>
<circle cx="138" cy="23.0002" r="2" fill="#0F5CA6"/>
<circle cx="138" cy="47.0002" r="2" fill="#0F5CA6"/>
<circle cx="138" cy="35.0002" r="2" fill="#0F5CA6"/>
<circle cx="150.001" cy="-1" r="2" fill="#0F5CA6"/>
<circle cx="150" cy="11.0002" r="2" fill="#0F5CA6"/>
<circle cx="150" cy="23.0002" r="2" fill="#0F5CA6"/>
<circle cx="150" cy="47.0002" r="2" fill="#0F5CA6"/>
<circle cx="150" cy="35.0002" r="2" fill="#0F5CA6"/>
<circle cx="162.001" cy="-1" r="2" fill="#0F5CA6"/>
<circle cx="162" cy="11.0002" r="2" fill="#0F5CA6"/>
<circle cx="162" cy="23.0002" r="2" fill="#0F5CA6"/>
<circle cx="162" cy="47.0002" r="2" fill="#0F5CA6"/>
<circle cx="162" cy="35.0002" r="2" fill="#0F5CA6"/>
<circle cx="78" cy="71.0002" r="2" fill="#0F5CA6"/>
<circle cx="78" cy="59.0002" r="2" fill="#0F5CA6"/>
<circle cx="90" cy="71.0002" r="2" fill="#0F5CA6"/>
<circle cx="90" cy="59.0002" r="2" fill="#0F5CA6"/>
<circle cx="102" cy="71.0002" r="2" fill="#0F5CA6"/>
<circle cx="102" cy="59.0002" r="2" fill="#0F5CA6"/>
<circle cx="114" cy="71.0002" r="2" fill="#0F5CA6"/>
<circle cx="114" cy="59.0002" r="2" fill="#0F5CA6"/>
<circle cx="126" cy="71.0002" r="2" fill="#0F5CA6"/>
<circle cx="126" cy="59.0002" r="2" fill="#0F5CA6"/>
<circle cx="138" cy="71.0002" r="2" fill="#0F5CA6"/>
<circle cx="138" cy="59.0002" r="2" fill="#0F5CA6"/>
<circle cx="150" cy="71.0002" r="2" fill="#0F5CA6"/>
<circle cx="150" cy="59.0002" r="2" fill="#0F5CA6"/>
<circle cx="162" cy="71.0002" r="2" fill="#0F5CA6"/>
<circle cx="162" cy="59.0002" r="2" fill="#0F5CA6"/>
<circle cx="78.001" cy="83.0002" r="2" fill="#0F5CA6"/>
<circle cx="78" cy="95.0002" r="2" fill="#0F5CA6"/>
<circle cx="78" cy="107" r="2" fill="#0F5CA6"/>
<circle cx="78" cy="131" r="2" fill="#0F5CA6"/>
<circle cx="78" cy="119" r="2" fill="#0F5CA6"/>
<circle cx="90.001" cy="83" r="2" fill="#0F5CA6"/>
<circle cx="90" cy="95.0002" r="2" fill="#0F5CA6"/>
<circle cx="90" cy="107" r="2" fill="#0F5CA6"/>
<circle cx="90" cy="131" r="2" fill="#0F5CA6"/>
<circle cx="90" cy="119" r="2" fill="#0F5CA6"/>
<circle cx="102.001" cy="83" r="2" fill="#0F5CA6"/>
<circle cx="102" cy="95.0002" r="2" fill="#0F5CA6"/>
<circle cx="102" cy="107" r="2" fill="#0F5CA6"/>
<circle cx="102" cy="131" r="2" fill="#0F5CA6"/>
<circle cx="102" cy="119" r="2" fill="#0F5CA6"/>
<circle cx="114.001" cy="83" r="2" fill="#0F5CA6"/>
<circle cx="114" cy="95.0002" r="2" fill="#0F5CA6"/>
<circle cx="114" cy="107" r="2" fill="#0F5CA6"/>
<circle cx="114" cy="131" r="2" fill="#0F5CA6"/>
<circle cx="114" cy="119" r="2" fill="#0F5CA6"/>
<circle cx="126.001" cy="83" r="2" fill="#0F5CA6"/>
<circle cx="126" cy="95.0002" r="2" fill="#0F5CA6"/>
<circle cx="126" cy="107" r="2" fill="#0F5CA6"/>
<circle cx="126" cy="131" r="2" fill="#0F5CA6"/>
<circle cx="126" cy="119" r="2" fill="#0F5CA6"/>
<circle cx="138.001" cy="83" r="2" fill="#0F5CA6"/>
<circle cx="138" cy="95.0002" r="2" fill="#0F5CA6"/>
<circle cx="138" cy="107" r="2" fill="#0F5CA6"/>
<circle cx="138" cy="131" r="2" fill="#0F5CA6"/>
<circle cx="138" cy="119" r="2" fill="#0F5CA6"/>
<circle cx="150.001" cy="83" r="2" fill="#0F5CA6"/>
<circle cx="150" cy="95.0002" r="2" fill="#0F5CA6"/>
<circle cx="150" cy="107" r="2" fill="#0F5CA6"/>
<circle cx="150" cy="131" r="2" fill="#0F5CA6"/>
<circle cx="150" cy="119" r="2" fill="#0F5CA6"/>
<circle cx="162.001" cy="83" r="2" fill="#0F5CA6"/>
<circle cx="162" cy="95.0002" r="2" fill="#0F5CA6"/>
<circle cx="162" cy="107" r="2" fill="#0F5CA6"/>
<circle cx="162" cy="131" r="2" fill="#0F5CA6"/>
<circle cx="162" cy="119" r="2" fill="#0F5CA6"/>
<circle cx="78" cy="143" r="2" fill="#0F5CA6"/>
<circle cx="90" cy="143" r="2" fill="#0F5CA6"/>
<circle cx="102" cy="143" r="2" fill="#0F5CA6"/>
<circle cx="114" cy="143" r="2" fill="#0F5CA6"/>
<circle cx="126" cy="143" r="2" fill="#0F5CA6"/>
<circle cx="138" cy="143" r="2" fill="#0F5CA6"/>
<circle cx="150" cy="143" r="2" fill="#0F5CA6"/>
<circle cx="162" cy="143" r="2" fill="#0F5CA6"/>
</g>
</g>
<path d="M154.841 37.8815L154.863 37.8669L154.884 37.8521L154.884 37.852L154.884 37.8517L154.885 37.8514L154.885 37.851L154.896 37.8436L154.944 37.8094C154.989 37.7783 155.057 37.7311 155.146 37.671C155.325 37.5506 155.587 37.379 155.91 37.1802C156.562 36.78 157.444 36.2827 158.392 35.8709C159.356 35.452 160.301 35.1604 161.097 35.0996C161.885 35.0394 162.332 35.2131 162.604 35.4822L162.609 35.4881L162.616 35.494C162.816 35.6886 163.072 36.1222 163.256 36.9661C163.436 37.7869 163.517 38.8485 163.497 40.1216C163.456 42.6651 163.014 45.8329 162.356 49.1503C161.046 55.7605 158.932 62.7132 157.708 65.9735C148.444 87.9795 139.562 100.928 129.224 107.767L128.263 108.403L128.63 109.496C129.208 111.217 129.535 113.007 129.535 114.962C129.535 124.235 121.994 131.735 112.622 131.735C112.433 131.735 112.25 131.719 112.015 131.697L111.97 131.693C111.759 131.673 111.48 131.646 111.192 131.646H109.708L109.692 133.13C109.612 140.651 103.483 146.815 95.8185 146.815C92.0305 146.815 88.6422 145.297 86.1316 142.886L85.0212 141.82L83.984 142.957C80.8604 146.384 76.4309 148.5 71.4169 148.5C62.0449 148.5 54.5041 141 54.5041 131.727V126.937V125.825L53.4403 125.502C43.7344 122.551 32.9757 116.851 25.0878 105.754C18.4222 96.3461 15.4103 84.456 14.8162 72.6736C14.2222 60.8956 16.0516 49.3521 18.941 40.7496L20.023 37.5282L16.9137 38.8996C16.3802 39.1349 15.9003 39.1773 15.4288 39.0733L15.4204 39.0715C14.5248 38.8793 13.579 38.0051 12.9968 36.1249C12.428 34.288 12.3246 31.7826 12.9079 29.0539L12.9133 29.0285L12.9178 29.003C13.1613 27.6339 13.5632 26.4427 14.1213 25.3349L15.2171 23.16H12.7818H4.49105L15.2027 15.1062L15.8013 14.6562V13.9073V12.5074V12.2013L15.6813 11.9196L13.0617 5.76897L17.7855 6.45147L18.7154 6.58582L19.2421 5.80779L21.7477 2.10667L26.1358 5.19957L26.6197 5.54062L27.2061 5.45929L31.1248 4.91578V11.4429V12.1298L31.6448 12.5785C34.5008 15.0432 36.8431 18.8693 39.4415 23.4685C39.775 24.0588 40.112 24.6605 40.4542 25.2714C42.7331 29.3396 45.2373 33.81 48.4135 37.9866L48.4168 37.9909C56.662 48.7529 62.9348 55.2551 69.7104 59.1371C76.5272 63.0428 83.7002 64.2095 93.5157 64.6563C98.698 64.8923 105.143 63.2565 111.768 60.794C118.432 58.3171 125.441 54.9408 131.807 51.5534C138.178 48.1634 143.933 44.7477 148.093 42.1806C150.175 40.8966 151.859 39.8238 153.024 39.0711C153.606 38.6947 154.059 38.3984 154.367 38.1956C154.521 38.0942 154.639 38.0162 154.719 37.9633L154.809 37.903L154.833 37.8873L154.839 37.8832L154.841 37.882C154.841 37.8817 154.841 37.8815 154.007 36.6351L154.841 37.8815Z" stroke="#0F5CA6" stroke-width="3"/>
<path d="M71 88H118C118 88 111.342 115 71 115" stroke="#0F5CA6" stroke-width="3"/>
</svg>
