<svg width="268" height="150" viewBox="0 0 268 150" fill="none" xmlns="http://www.w3.org/2000/svg">
<g opacity="0.3">
<mask id="mask0" mask-type="alpha" maskUnits="userSpaceOnUse" x="0" y="0" width="268" height="150">
<path d="M209.424 107.921C207.841 113.472 205.525 120.699 203.725 123.495C201.371 127.149 192.742 137.492 188.722 142.207C187.215 143.975 189.163 143.975 190.34 143.975H202.548C202.548 142.649 202.783 139.407 203.725 138.818C214.198 134.521 225.346 106.509 227.699 100.952C228.792 98.3726 221.899 91.6171 214.198 85.1178C220.264 87.0939 226.57 90.5179 229.758 96.0896C235.289 105.755 236.755 128.637 237 139C234.451 140.473 227 143.975 227 150H240C240 150 239.5 147 241 146C241.588 145.411 245.794 142.326 248 141L249.32 106.109C250.35 104.537 252.203 100.569 251.38 97.2683C251.052 95.9545 250.187 94.5063 249.151 92.7713C247.751 90.4273 246.039 87.5599 244.916 83.7937C246.82 67.9724 246.975 57.2217 249.151 47.5C249.151 47.5 255.211 78.0854 255.432 86.3231C255.432 88.571 255.267 92.2977 254.199 101.649C253.131 111.001 258.794 121.342 261.81 123.789L261.863 123.697C263.917 120.102 268.537 112.02 267.949 105.364C267.531 100.634 266.32 98.7577 264.547 96.0085C263.174 93.88 261.463 91.2281 259.521 86.3231C257.513 81.25 257.272 68.7123 256.99 54.0779V54.0673L256.99 54.0376C256.822 45.3591 256.99 35 256.99 35L256.5 24C255.414 13.16 253.292 1.93958 239.466 0.466184C225.277 -1.04592 216.551 1.38317 207.189 3.98967C200.149 5.94933 192.75 8.00928 182.397 8.56986C178.218 8.79612 169.274 8.77202 157.688 8.74073C133.066 8.67432 76.2035 4.29702 68.4081 10.78C64.3216 14.1784 60.3185 16.8209 55.0235 17.9996C53.01 18.4478 50.7627 17.6035 48.5967 16.1635C52.7541 14.1862 61.1275 9.68814 62.0306 7.23129C63.0614 4.42745 48.7659 3.79866 43.8705 6.32926C43.4622 6.13523 43.0138 5.93746 42.5217 5.73559C37.4838 3.66902 30.0797 4.24701 24.136 7.36697C23.5006 7.7005 23.0229 8.00597 22.6718 8.28885C19.7333 7.46791 16.3745 6.85891 13.7012 7.1869C8.94394 7.77064 8.25104 8.27518 10.3102 10.2513C10.3102 10.2513 15.195 12.5831 19.9867 12.6613C17.8508 14.1617 15.4978 16.1519 14.5756 17.9996C13.9528 19.2477 13.3665 21.3033 12.7069 23.6158C11.4975 27.8555 10.0419 32.9589 7.66272 35.533C6.74518 36.5258 5.79086 37.436 4.87991 38.3049C2.14078 40.9175 -0.206238 43.1561 0.0143738 46.1414C0.249664 49.324 6.38809 53.3611 9.4277 54.9818C11.0948 55.8167 15.2817 56.9856 18.694 54.9818C22.1062 52.9781 26.5873 54.1469 28.4014 54.9818C40.4623 54.9818 50.7874 59.9619 55.0235 63.3802C57.5972 65.4571 59.4759 70.3538 61.5213 75.6844C63.6836 81.3203 66.0321 87.4412 69.5847 91.2273C74.6413 96.6162 82.0564 98.7874 90.2797 98.9904L86.4993 136.019L75.7622 146.774H89.1468C89.1468 146.774 92.0885 139.555 93.2651 139.555C98.7967 139.555 99.0534 130.961 99.2588 124.078C99.3224 121.948 99.3812 119.982 99.5897 118.485C100.137 114.555 102.548 104.937 104.448 97.7244C105.736 97.4865 107.023 97.2204 108.304 96.9301L116.798 136.608L111.062 143.238H123.858L127.683 136.608L124.687 91.9395C125.677 91.565 126.645 91.186 127.586 90.8055C137.113 92.4318 148.723 93.2526 159.246 93.6115C162.667 96.6147 166.279 99.2298 170.043 101.246C174.469 103.618 178.75 105.338 182.803 106.548L180.162 115.997C179.833 117.172 180.518 118.392 181.691 118.721C182.865 119.05 184.082 118.364 184.411 117.189L186.786 106.852L187.805 115.071C188.018 116.273 188.145 117.045 189.344 116.831C190.544 116.618 190.753 115.36 190.54 114.158L190.064 108.248C192.099 108.593 194.05 108.813 195.903 108.932L193.275 118.724C192.946 119.9 193.461 121.339 194.634 121.668C195.808 121.997 197.025 121.311 197.354 120.135L199.657 106.852L199.459 117.748C199.459 118.969 200.447 119.959 201.665 119.959C202.884 119.959 203.872 118.969 203.872 117.748V108.829C205.962 108.63 207.824 108.307 209.424 107.921Z" fill="#737373"/>
</mask>
<g mask="url(#mask0)">
<path d="M-5 -99L11 -81.0667L-5 -63.1333L11 -45.2L-5 -27.2667L11 -9.33333L-5 8.6L11 26.5333L-5 44.4667L11 62.4L-5 80.3333L11 98.2667L-5 116.2L11 134.133L-5 152.067L11 170" stroke="#5586FF" stroke-width="3"/>
<path d="M16 -99L32 -81.0667L16 -63.1333L32 -45.2L16 -27.2667L32 -9.33333L16 8.6L32 26.5333L16 44.4667L32 62.4L16 80.3333L32 98.2667L16 116.2L32 134.133L16 152.067L32 170" stroke="#5586FF" stroke-width="3"/>
<path d="M37 -99L53 -81.0667L37 -63.1333L53 -45.2L37 -27.2667L53 -9.33333L37 8.6L53 26.5333L37 44.4667L53 62.4L37 80.3333L53 98.2667L37 116.2L53 134.133L37 152.067L53 170" stroke="#5586FF" stroke-width="3"/>
<path d="M58 -99L74 -81.0667L58 -63.1333L74 -45.2L58 -27.2667L74 -9.33333L58 8.6L74 26.5333L58 44.4667L74 62.4L58 80.3333L74 98.2667L58 116.2L74 134.133L58 152.067L74 170" stroke="#5586FF" stroke-width="3"/>
<path d="M79 -99L95 -81.0667L79 -63.1333L95 -45.2L79 -27.2667L95 -9.33333L79 8.6L95 26.5333L79 44.4667L95 62.4L79 80.3333L95 98.2667L79 116.2L95 134.133L79 152.067L95 170" stroke="#5586FF" stroke-width="3"/>
<path d="M100 -99L116 -81.0667L100 -63.1333L116 -45.2L100 -27.2667L116 -9.33333L100 8.6L116 26.5333L100 44.4667L116 62.4L100 80.3333L116 98.2667L100 116.2L116 134.133L100 152.067L116 170" stroke="#5586FF" stroke-width="3"/>
<path d="M121 -99L137 -81.0667L121 -63.1333L137 -45.2L121 -27.2667L137 -9.33333L121 8.6L137 26.5333L121 44.4667L137 62.4L121 80.3333L137 98.2667L121 116.2L137 134.133L121 152.067L137 170" stroke="#5586FF" stroke-width="3"/>
<path d="M142 -99L158 -81.0667L142 -63.1333L158 -45.2L142 -27.2667L158 -9.33333L142 8.6L158 26.5333L142 44.4667L158 62.4L142 80.3333L158 98.2667L142 116.2L158 134.133L142 152.067L158 170" stroke="#5586FF" stroke-width="3"/>
<path d="M163 -99L179 -81.0667L163 -63.1333L179 -45.2L163 -27.2667L179 -9.33333L163 8.6L179 26.5333L163 44.4667L179 62.4L163 80.3333L179 98.2667L163 116.2L179 134.133L163 152.067L179 170" stroke="#5586FF" stroke-width="3"/>
<path d="M184 -99L200 -81.0667L184 -63.1333L200 -45.2L184 -27.2667L200 -9.33333L184 8.6L200 26.5333L184 44.4667L200 62.4L184 80.3333L200 98.2667L184 116.2L200 134.133L184 152.067L200 170" stroke="#5586FF" stroke-width="3"/>
<path d="M205 -99L221 -81.0667L205 -63.1333L221 -45.2L205 -27.2667L221 -9.33333L205 8.6L221 26.5333L205 44.4667L221 62.4L205 80.3333L221 98.2667L205 116.2L221 134.133L205 152.067L221 170" stroke="#5586FF" stroke-width="3"/>
<path d="M226 -99L242 -81.0667L226 -63.1333L242 -45.2L226 -27.2667L242 -9.33333L226 8.6L242 26.5333L226 44.4667L242 62.4L226 80.3333L242 98.2667L226 116.2L242 134.133L226 152.067L242 170" stroke="#5586FF" stroke-width="3"/>
<path d="M247 -99L263 -81.0667L247 -63.1333L263 -45.2L247 -27.2667L263 -9.33333L247 8.6L263 26.5333L247 44.4667L263 62.4L247 80.3333L263 98.2667L247 116.2L263 134.133L247 152.067L263 170" stroke="#5586FF" stroke-width="3"/>
<path d="M268 -99L284 -81.0667L268 -63.1333L284 -45.2L268 -27.2667L284 -9.33333L268 8.6L284 26.5333L268 44.4667L284 62.4L268 80.3333L284 98.2667L268 116.2L284 134.133L268 152.067L284 170" stroke="#5586FF" stroke-width="3"/>
</g>
</g>
<path d="M209.071 106.463L211.571 105.859L210.866 108.332C210.07 111.124 209.087 114.35 208.071 117.239C207.072 120.082 205.993 122.743 204.986 124.307C202.679 127.888 194.666 137.525 190.463 142.475H201.112C201.152 141.963 201.214 141.409 201.304 140.872C201.4 140.299 201.538 139.691 201.741 139.154C201.918 138.687 202.254 137.969 202.929 137.547L203.037 137.479L203.155 137.43C205.394 136.512 207.854 134.222 210.37 130.955C212.853 127.73 215.257 123.733 217.433 119.652C221.269 112.457 224.324 105.14 225.807 101.586C226.003 101.116 226.172 100.711 226.312 100.382C226.314 100.36 226.32 100.283 226.284 100.124C226.228 99.8709 226.089 99.5107 225.824 99.0349C225.292 98.0822 224.379 96.8901 223.133 95.51C220.653 92.763 217.066 89.5014 213.231 86.2641L214.663 83.6916C220.851 85.7075 227.594 89.2871 231.06 95.3446L229.758 96.0896L231.06 95.3446C233.987 100.459 235.76 108.864 236.848 117.086C237.946 125.38 238.376 133.748 238.5 138.965L238.521 139.854L237.751 140.299C237.483 140.454 237.179 140.622 236.849 140.805C235.481 141.562 233.656 142.573 232.003 143.947C230.401 145.278 229.167 146.787 228.702 148.5H238.428C238.431 148.424 238.436 148.347 238.441 148.268C238.506 147.359 238.773 145.768 240.048 144.836C240.298 144.607 240.696 144.291 241.118 143.967C241.644 143.563 242.306 143.072 243.016 142.56C244.161 141.733 245.462 140.83 246.531 140.147L247.821 106.052L247.837 105.635L248.066 105.287C248.508 104.612 249.165 103.355 249.61 101.899C250.06 100.426 250.243 98.9103 249.924 97.6315C249.662 96.5819 248.942 95.3479 247.863 93.5404L247.844 93.5086C246.447 91.1692 244.655 88.1685 243.478 84.2223L243.389 83.9238L243.427 83.6145C244.148 77.6231 244.616 72.3713 245.041 67.6028C245.176 66.0963 245.306 64.6381 245.438 63.2201C245.987 57.3327 246.577 52.1332 247.687 47.1725L250.622 47.2085L249.151 47.5C250.622 47.2085 250.622 47.2086 250.622 47.2089L250.622 47.21L250.623 47.2143L250.627 47.2312L250.64 47.2975L250.691 47.5561C250.735 47.7829 250.801 48.1163 250.884 48.5434C251.05 49.3975 251.288 50.6263 251.574 52.1266C252.147 55.1267 252.912 59.2138 253.685 63.5598C255.22 72.1894 256.817 82.0253 256.932 86.2827L256.932 86.3029V86.3231C256.932 88.656 256.759 92.4488 255.689 101.819C255.193 106.16 256.259 110.821 257.861 114.741C258.658 116.69 259.573 118.422 260.46 119.801C260.825 120.37 261.177 120.864 261.504 121.283C262.44 119.595 263.56 117.45 264.507 115.115C265.814 111.889 266.717 108.47 266.455 105.496C266.256 103.247 265.876 101.748 265.369 100.513C264.853 99.2568 264.184 98.2128 263.286 96.8216L264.547 96.0085L263.286 96.8216C261.891 94.6579 260.121 91.9119 258.127 86.8752L259.518 86.3242L258.127 86.8752C257.022 84.0848 256.456 79.449 256.111 73.8787C255.763 68.249 255.631 61.4302 255.491 54.1335L255.491 54.1068L255.49 54.0924V54.0783V54.0779L255.49 54.0665C255.49 54.0653 255.49 54.064 255.49 54.0628C255.406 49.7064 255.406 44.9345 255.427 41.2558C255.438 39.4149 255.454 37.8457 255.467 36.7364C255.473 36.1818 255.479 35.742 255.484 35.4408L255.489 35.0956L255.49 35.0216L255.003 24.1083C254.459 18.6914 253.67 13.4792 251.447 9.44471C249.291 5.53407 245.738 2.64308 239.307 1.95774C225.411 0.476835 216.911 2.84006 207.591 5.43472L207.189 3.98967L207.591 5.43472L207.568 5.4412C200.524 7.40219 192.994 9.49823 182.479 10.0677C178.256 10.2963 169.288 10.2721 157.776 10.241L157.684 10.2407C151.356 10.2237 142.815 9.91908 133.541 9.58836C124.837 9.27794 115.486 8.94448 106.714 8.80415C97.5911 8.65819 89.0372 8.71776 82.2941 9.21297C78.9203 9.46074 76.0394 9.81494 73.7852 10.2953C71.4655 10.7897 70.0405 11.3733 69.3672 11.9333C65.2031 15.3962 60.9821 18.2099 55.3495 19.4638C52.7254 20.0479 50.0346 18.9207 47.7662 17.4127L45.5608 15.9465L47.9524 14.8089C49.9977 13.8361 53.08 12.2427 55.7474 10.6C57.0838 9.777 58.2823 8.96212 59.1862 8.2237C59.6382 7.85445 59.9922 7.52404 60.2462 7.23981C60.2729 7.20991 60.2979 7.18126 60.3211 7.15385C60.1979 7.09985 60.0434 7.04018 59.8524 6.97803C58.7647 6.62423 57.0738 6.37119 55.1022 6.27819C53.1523 6.18623 51.0253 6.25513 49.1054 6.49659C47.1518 6.74228 45.5483 7.15051 44.5593 7.66176L43.8984 8.00337L43.2265 7.68402C42.8458 7.50306 42.4225 7.31621 41.9524 7.12335C37.3999 5.2559 30.4624 5.74023 24.8332 8.69511L24.1372 7.36914L24.8332 8.69514C24.2508 9.00079 23.8636 9.25491 23.613 9.45683L23.0118 9.94128L22.2682 9.73353C19.3779 8.92604 16.2538 8.38497 13.8838 8.67573C12.7816 8.81099 11.949 8.93638 11.3367 9.06809C11.4441 9.11466 11.5727 9.1693 11.7204 9.23025C12.2247 9.43832 12.9487 9.71827 13.816 10.0007C15.5681 10.5712 17.8267 11.1258 20.0112 11.1615L24.6239 11.2367L20.8489 13.8887C19.819 14.6122 18.7579 15.4394 17.8556 16.291C16.9362 17.1589 16.2638 17.9761 15.9178 18.6694C15.3729 19.7613 14.8279 21.6484 14.1494 24.0273L14.1402 24.0597C13.5411 26.1596 12.8603 28.5462 12.0248 30.7341C11.1945 32.9085 10.1537 35.0479 8.76428 36.5511C7.81445 37.5789 6.83136 38.5165 5.92883 39.3773L5.91519 39.3903C4.51682 40.7241 3.35974 41.8351 2.55692 42.9565C1.78061 44.0409 1.43436 45.0034 1.51028 46.0309C1.53754 46.3993 1.76279 46.9661 2.34515 47.7219C2.90842 48.4528 3.70166 49.2265 4.62607 49.992C6.46591 51.5154 8.66031 52.8712 10.1158 53.6488C10.7928 53.9847 12.0645 54.4241 13.5362 54.5519C15.0128 54.6802 16.5752 54.4865 17.9344 53.6884C19.9972 52.477 22.3125 52.2611 24.2701 52.4224C26.0479 52.5688 27.6482 53.035 28.7179 53.4829C41.0025 53.5686 51.514 58.6208 55.9655 62.2128L55.0235 63.3802L55.9655 62.2129C57.5212 63.4683 58.752 65.4642 59.8191 67.6554C60.8945 69.8638 61.8946 72.47 62.9051 75.1037L62.9218 75.147L61.5213 75.6844L62.9218 75.1471C65.1194 80.875 67.3701 86.675 70.6786 90.2009L69.5847 91.2273L70.6786 90.2009C75.3517 95.1811 82.3018 97.293 90.3167 97.4909L91.9365 97.5309L91.7719 99.1428L87.9915 136.171L87.9374 136.701L87.5609 137.078L79.3791 145.274H88.1514C88.1824 145.202 88.2151 145.127 88.2491 145.048C88.5485 144.36 88.9627 143.435 89.4172 142.506C89.8666 141.586 90.3766 140.618 90.8687 139.864C91.1111 139.492 91.3847 139.116 91.6779 138.816C91.8248 138.666 92.0131 138.497 92.2405 138.357C92.4594 138.223 92.8143 138.055 93.2651 138.055C94.1972 138.055 94.8472 137.718 95.3812 137.112C95.9643 136.451 96.4441 135.42 96.8074 134.02C97.5374 131.209 97.6552 127.526 97.7594 124.033L97.7616 123.963C97.8235 121.888 97.8842 119.856 98.1041 118.278C98.6667 114.238 101.107 104.519 102.998 97.3421L103.24 96.4221L104.176 96.2493C105.443 96.0154 106.71 95.7533 107.972 95.4672L109.452 95.1315L109.77 96.616L118.265 136.294L118.422 137.024L117.933 137.589L114.343 141.738H122.992L126.155 136.253L123.19 92.0399L123.116 90.93L124.156 90.5365C125.136 90.166 126.093 89.7912 127.024 89.4148L127.419 89.2552L127.838 89.3269C137.268 90.9366 148.801 91.7543 159.297 92.1124L159.833 92.1306L160.236 92.4842C163.59 95.429 167.109 97.9726 170.751 99.9243C175.088 102.248 179.276 103.929 183.232 105.111L184.644 105.533L184.247 106.952L181.606 116.401L181.606 116.401C181.5 116.781 181.722 117.172 182.096 117.277C182.461 117.379 182.843 117.173 182.959 116.809L185.325 106.516L188.275 106.667L188.724 110.288L188.569 108.368L188.415 106.447L190.315 106.769C192.298 107.105 194.197 107.32 195.999 107.435L197.827 107.552L197.352 109.321L194.724 119.113L194.721 119.121L194.719 119.128C194.648 119.385 194.67 119.688 194.771 119.923C194.867 120.148 194.98 120.207 195.04 120.223C195.395 120.323 195.766 120.131 195.892 119.784L198.179 106.596L201.156 106.879L200.959 117.758C200.965 118.148 201.281 118.459 201.665 118.459C202.053 118.459 202.372 118.143 202.372 117.748V108.829V107.464L203.73 107.335C205.752 107.143 207.544 106.832 209.071 106.463Z" stroke="#5586FF" stroke-width="3"/>
</svg>
