<svg width="149" height="149" viewBox="0 0 149 149" fill="none" xmlns="http://www.w3.org/2000/svg">
<rect width="149" height="149" fill="white"/>
<g clip-path="url(#clip0)">
<path d="M52.647 43.722C52.647 43.722 52.9383 43.4357 53.5211 43.4357C56.4347 42.2905 59.3484 43.722 59.3484 46.8714C59.3484 48.5892 60.2225 48.8755 61.388 49.1618C61.9707 49.1618 62.8448 49.1618 63.4275 49.1618C73.0426 49.1618 82.6577 49.1618 91.9815 49.1618C94.8951 49.1618 97.2261 50.0207 99.557 51.4523C100.431 52.0249 101.597 52.3112 102.471 52.3112C106.841 52.5975 109.463 54.888 109.463 59.4689C109.463 62.0456 109.172 64.3361 110.629 66.6266C111.794 68.6307 110.338 70.9212 108.589 72.3527C105.676 70.0622 105.676 68.3444 106.841 65.195C107.715 62.6183 107.133 59.4689 106.55 56.8921C106.258 55.4606 104.51 54.6017 103.345 54.888C103.345 59.7552 103.636 64.3361 103.636 68.917C103.636 75.5021 103.636 81.8008 103.636 88.3859C103.636 90.39 102.762 90.6763 101.014 90.9627C97.5175 91.249 95.4779 90.39 95.1865 86.668C91.9815 86.9544 89.3592 87.2407 86.4455 87.2407C84.9887 90.9627 84.9887 90.9627 80.9095 90.9627C79.7441 90.9627 78.87 90.9627 77.4131 90.9627C77.9959 87.2407 78.5786 84.0913 78.87 80.3693C75.9563 79.7967 73.334 79.5104 70.129 78.9378C70.7117 82.9461 71.2944 86.668 72.1685 90.9627C69.5462 90.9627 67.2153 90.9627 64.8844 90.9627C64.3016 90.9627 63.7189 90.1037 63.7189 89.5311C62.5534 87.2407 61.6793 84.6639 60.5139 82.3734C60.2225 82.3734 59.9311 82.3734 59.9311 82.3734C59.057 84.6639 58.4743 86.9544 57.8916 89.2448C57.6002 90.39 57.0175 90.9627 55.852 90.9627C53.8124 90.9627 51.7729 90.9627 49.4419 90.9627C50.0247 88.3859 50.316 85.8091 50.6074 83.5187C51.4815 78.3651 52.647 72.9253 53.5211 67.7718C53.8124 65.7676 53.5211 64.0498 51.7729 62.9046C50.0247 61.473 47.9851 61.473 45.9455 62.6183C45.0714 63.1909 44.1973 63.7635 43.0318 64.3361C40.4095 65.4813 38.37 64.6224 35.4563 61.7593C33.7081 60.0415 33.4167 58.3237 34.8736 56.0332C36.6218 52.8838 38.6613 49.7344 40.7009 46.2988C41.575 44.8672 41.575 43.4357 42.4491 42.0041C42.7405 41.4315 43.3232 40.5726 43.9059 40C44.4887 40.5726 45.0714 41.1452 45.9455 42.0041C46.2369 42.2905 46.8196 42.8631 46.8196 43.1494C47.9851 41.7178 48.8592 40.8589 49.7333 40C50.8988 41.1452 51.7729 42.2905 52.647 43.722ZM49.4419 45.7261C44.78 45.1535 43.9059 45.7261 41.575 49.4481C40.1182 51.7386 38.9527 54.029 37.4959 56.3195C36.6218 57.751 36.039 59.1826 37.7872 60.9004C39.5354 62.332 40.9923 62.9046 43.0318 61.473C43.6146 61.1867 44.1973 60.6141 44.78 60.3278C48.8592 58.3237 53.8124 60.0415 55.5606 64.3361C58.1829 70.6349 60.8052 76.9336 63.4275 83.2324C64.8844 86.3817 65.1757 86.3817 68.6721 85.5228C68.6721 84.9502 68.6721 84.6639 68.6721 84.0913C68.0894 80.083 67.2153 76.361 66.6326 72.3527C66.3412 69.7759 67.2153 68.0581 69.2549 67.4855C71.2944 66.6266 73.0426 67.4855 74.4995 69.4896C75.0822 70.0622 75.6649 70.9212 76.2477 71.2075C77.7045 72.0664 78.5786 73.2116 77.7045 74.9295C76.8304 76.6473 75.3736 76.6473 73.6254 76.0747C72.7513 75.7884 71.5858 75.7884 70.4203 75.7884C75.3736 78.9378 84.1146 78.6515 89.0678 75.2158C88.1937 74.3568 87.3196 73.2116 86.7369 72.3527C86.4455 71.4938 86.4455 70.6349 86.4455 70.0622C87.0282 70.0622 87.9023 70.0622 88.1937 70.3485C88.7764 70.6349 89.0678 71.2075 89.3592 71.7801C91.9815 76.0747 94.6038 80.3693 96.6434 84.6639C97.5175 86.3817 98.6829 86.0954 99.8484 85.8091C100.431 85.8091 101.014 84.6639 101.014 83.805C101.014 76.0747 101.014 68.0581 101.014 60.3278C101.014 56.3195 98.3916 52.5975 94.3124 52.0249C89.6505 51.4523 84.9887 52.0249 80.3268 52.0249C80.9095 54.3154 80.0354 55.7469 77.7045 56.3195C77.1218 56.6058 76.539 57.4647 75.9563 58.0373C73.9167 60.6141 70.4203 60.6141 68.3808 58.0373C67.798 57.4647 67.5067 56.6058 66.9239 56.3195C64.593 55.7469 63.4275 54.3154 64.0103 51.7386C62.8448 51.7386 61.6793 51.7386 60.8052 51.4523C58.4743 50.5934 56.4347 50.0207 54.6865 52.3112C54.3952 52.5975 53.5211 52.3112 52.9383 52.3112C52.9383 51.7386 52.9383 51.166 53.2297 50.5934C54.1038 49.7344 55.2693 48.8755 56.1434 48.0166C56.4347 47.444 56.1434 46.5851 56.4347 45.7261C55.5606 45.7261 54.6865 45.4398 54.3952 45.7261C53.5211 46.2988 52.647 47.1577 51.7729 47.444C51.1901 48.0166 50.316 48.0166 49.4419 48.3029C49.4419 47.444 49.4419 46.8714 49.4419 45.7261ZM55.5606 71.2075C55.2693 71.2075 55.2693 71.2075 54.9779 71.2075C54.1038 76.0747 53.2297 80.6556 52.0642 85.5228C54.6865 86.3817 56.1434 85.8091 56.4347 83.5187C56.7261 82.3734 57.6002 81.2282 57.8916 80.083C58.1829 79.5104 58.4743 78.6515 58.1829 78.0788C57.6002 75.7884 56.7261 73.4979 55.5606 71.2075ZM86.7369 82.3734C87.0282 83.2324 87.3196 84.0913 87.611 84.9502C88.4851 84.3776 89.3592 83.805 90.5246 83.2324C90.5246 83.2324 90.816 83.5187 91.1074 83.5187C91.6901 83.805 92.5642 84.0913 93.1469 84.3776C93.1469 83.5187 93.7297 82.6597 93.4383 82.0871C92.5642 80.3693 91.6901 78.9378 90.5246 77.2199C88.7764 77.7925 87.3196 78.3651 85.8628 78.9378C84.6973 79.5104 82.6577 79.2241 83.2405 81.2282C83.8232 81.8008 85.5714 81.8008 86.7369 82.3734ZM80.6182 85.8091C82.075 85.8091 83.2405 85.5228 84.4059 85.5228C84.4059 85.2365 84.4059 85.2365 84.4059 84.9502C83.2405 84.3776 82.3664 83.805 81.2009 82.9461C80.9095 84.0913 80.9095 84.6639 80.6182 85.8091Z" fill="black"/>
<path d="M47.9858 102.415C47.403 103.847 46.5289 104.992 45.9462 106.423C45.0721 107.855 44.4894 108.141 43.6153 106.423C43.0325 105.278 42.1584 103.847 41.5757 102.701C41.2843 102.701 41.2843 102.701 40.993 102.701C40.993 104.133 40.993 105.564 40.993 106.71C40.993 107.282 40.4102 107.855 40.1189 108.427C39.8275 107.855 39.2448 107.569 39.2448 106.996C39.2448 104.133 39.2448 101.27 39.2448 98.4067C40.993 98.1204 42.1584 97.8341 43.0325 99.552C43.6153 100.983 44.198 102.129 45.0721 103.56C47.403 102.129 46.2376 97.2615 51.1908 98.4067C51.1908 101.27 51.1908 104.419 51.1908 107.569C51.1908 107.855 50.6081 108.427 50.3167 108.714C50.0253 108.427 49.4426 107.855 49.4426 107.569C49.4426 106.137 49.4426 104.419 49.4426 102.988C48.5685 102.701 48.2771 102.701 47.9858 102.415Z" fill="black"/>
<path d="M105.968 105.278C106.259 104.133 106.551 102.987 107.133 102.129C107.425 101.556 108.008 100.983 108.59 100.983C109.173 100.983 109.756 101.556 110.047 102.129C110.63 102.987 110.921 104.133 111.213 105.278C112.961 104.133 111.795 100.983 115.292 100.983C114.418 103.56 113.835 105.851 112.961 107.855C112.669 108.427 111.795 108.714 111.213 108.714C110.921 108.714 110.338 108.141 110.047 107.568C109.756 106.709 109.464 105.851 108.882 104.133C108.299 105.851 108.008 106.709 107.425 107.568C107.133 108.141 106.551 108.427 105.968 108.427C105.385 108.427 104.802 107.855 104.511 107.568C103.637 105.564 103.054 103.274 102.18 100.983C105.677 100.697 104.511 103.846 105.968 105.278Z" fill="black"/>
<path d="M64.5938 102.987C66.0506 102.129 67.2161 101.27 68.6729 100.411C68.6729 100.697 68.9643 100.697 68.9643 100.983C68.3816 102.129 67.5075 103.56 67.5075 104.705C67.7988 105.851 68.9643 106.996 69.8384 108.427C67.2161 109.573 66.9247 106.709 65.1765 105.564C64.8852 106.709 64.5938 107.568 64.3024 109.286C63.4283 108.427 62.8456 107.855 62.8456 107.282C62.8456 104.705 62.8456 101.842 62.8456 99.2655C62.8456 98.6928 63.4283 98.1202 64.0111 97.8339C64.3024 97.8339 64.5938 98.1202 64.8852 98.1202C64.3024 99.5518 64.3024 100.983 64.5938 102.987Z" fill="black"/>
<path d="M91.9823 100.411C90.8168 100.411 89.9427 100.697 89.36 100.411C87.6118 99.5518 85.8636 99.8381 84.9895 101.27C84.4068 102.415 84.4068 104.419 84.9895 105.278C85.8636 106.996 87.9032 106.709 89.6514 105.851C90.2341 105.564 90.8168 105.851 91.6909 105.851C89.9427 109 85.5722 108.714 83.5327 106.709C81.4931 104.992 81.4931 101.556 83.2413 99.5518C85.2809 97.5477 88.7773 97.5477 91.9823 100.411Z" fill="black"/>
<path d="M96.6439 100.411C98.9749 100.411 101.014 102.129 101.014 104.419C101.014 106.423 98.9749 108.427 96.6439 108.427C94.313 108.427 92.5648 106.709 92.2734 104.419C92.5648 102.415 94.6044 100.411 96.6439 100.411ZM94.313 104.133C94.313 104.419 94.313 104.705 94.313 105.278C95.1871 105.851 96.0612 106.996 96.9353 106.996C97.8094 106.996 98.9749 105.564 98.9749 104.992C98.9749 104.133 97.8094 102.701 96.9353 102.701C96.0612 102.129 95.1871 103.56 94.313 104.133Z" fill="black"/>
<path d="M58.7663 97.5477C59.0577 98.1203 59.9318 98.4066 59.9318 98.9792C59.9318 101.842 59.9318 104.419 59.9318 107.282C59.9318 107.855 59.3491 108.141 59.0577 108.714C58.7663 108.141 58.1836 107.855 58.1836 107.282C58.1836 104.133 58.1836 101.27 58.1836 98.1203C58.1836 97.834 58.475 97.5477 58.7663 97.5477Z" fill="black"/>
<path d="M55.5615 104.705C55.5615 105.564 55.5615 106.423 55.5615 107.282C55.5615 107.855 54.9788 108.141 54.3961 108.714C54.1047 108.141 53.522 107.855 53.522 107.282C53.522 105.564 53.522 103.846 53.522 102.129C53.522 101.556 54.1047 101.27 54.6874 100.697C54.9788 101.27 55.5615 101.556 55.5615 102.129C55.5615 102.987 55.5615 103.846 55.5615 104.705Z" fill="black"/>
<path d="M49.4427 45.726C49.4427 46.5849 49.4427 47.4439 49.4427 48.3028C50.3168 48.0165 51.1909 48.0165 51.7737 47.4439C52.6478 47.1576 53.5219 46.2986 54.396 45.726C54.9787 45.4397 55.8528 45.726 56.4355 45.726C56.4355 46.5849 56.7269 47.4439 56.1442 48.0165C55.2701 49.1617 54.1046 49.7343 53.2305 50.5932C52.9391 50.8795 52.9391 51.7385 52.9391 52.3111C53.5219 52.3111 54.396 52.5974 54.6873 52.5974C56.4355 50.3069 58.7665 50.8795 61.0974 51.4522C61.9715 51.7385 62.8456 51.4522 64.0111 51.7385C63.4283 54.3152 64.5938 55.7468 66.9247 56.3194C67.5075 56.6057 68.0902 57.4646 68.3816 58.0372C70.4211 60.614 73.9175 60.9003 75.9571 58.0372C76.5398 57.4646 76.8312 56.6057 77.7053 56.3194C80.0363 55.4605 80.9104 54.3152 80.3276 52.0248C84.9895 52.0248 89.6514 51.7385 94.3132 52.0248C98.101 52.3111 101.015 56.3194 101.015 60.3277C101.015 68.058 101.015 76.0746 101.015 83.8049C101.015 84.3775 100.432 85.809 99.8492 85.809C98.6837 86.0953 97.5183 86.3816 96.6442 84.6638C94.3132 80.3692 91.6909 76.0746 89.36 71.78C89.0686 71.2073 88.4859 70.6347 88.1945 70.3484C87.6118 70.0621 87.0291 70.0621 86.4463 70.0621C86.4463 70.6347 86.4463 71.4937 86.7377 71.78C87.3204 72.9252 88.4859 73.7841 89.0686 74.643C84.1154 78.0787 75.3744 78.6513 70.4211 75.2156C71.5866 75.2156 72.7521 75.2156 73.6262 75.5019C75.3744 76.0746 76.8312 76.0746 77.7053 74.3567C78.5794 72.6389 77.7053 71.78 76.2485 70.6347C75.6657 70.3484 75.083 69.4895 74.5003 68.9169C73.0434 66.9127 71.2952 66.3401 69.2557 66.9127C67.2161 67.7717 66.0506 69.4895 66.6334 71.78C67.2161 75.7883 68.0902 79.5102 68.6729 83.5185C68.6729 84.0912 68.6729 84.3775 68.6729 84.9501C65.1765 85.809 64.8852 85.809 63.4283 82.6596C60.806 76.3609 58.1837 70.0621 55.5614 63.7634C53.8132 60.0414 48.86 58.3235 44.7809 60.3277C44.1981 60.614 43.6154 61.1866 43.0326 61.4729C40.9931 62.9044 39.5362 62.3318 37.788 60.9003C36.0398 59.1824 36.6226 57.7509 37.4967 56.3194C38.9535 54.0289 40.119 51.7385 41.5758 49.448C43.9068 45.726 44.7809 45.1534 49.4427 45.726ZM97.8096 63.1907C98.101 61.1866 96.6442 59.4688 94.896 58.8961C92.8564 58.6098 91.1082 59.1824 90.2341 60.9003C89.0686 62.6181 89.36 64.336 90.8168 66.0538C91.6909 67.199 92.565 68.3443 93.7305 69.2032C94.6046 69.7758 96.0614 70.3484 96.9355 70.0621C97.8096 69.7758 98.3924 68.3443 98.3924 67.4854C98.3924 65.7675 97.8096 64.336 97.8096 63.1907Z" fill="white"/>
<path d="M55.5612 71.2075C56.4353 73.498 57.6008 75.7884 58.4749 78.0789C58.7663 78.6515 58.4749 79.5104 58.1835 80.083C57.6008 81.2283 57.0181 82.3735 56.7267 83.5187C56.144 85.8092 54.6871 86.3818 52.3562 85.5229C53.2303 80.6557 54.1044 76.0747 55.2699 71.2075C55.2699 71.2075 55.5612 71.2075 55.5612 71.2075Z" fill="white"/>
<path d="M86.7375 82.3734C85.572 82.0871 83.8238 81.8008 83.5325 81.2282C82.9497 79.5104 84.9893 79.5104 86.1548 78.9378C87.6116 78.3651 89.0685 77.7925 90.8167 77.2199C91.6908 78.9378 92.8562 80.3693 93.7303 82.0871C94.0217 82.6597 93.7303 83.5187 93.439 84.3776C92.8562 84.0913 91.9821 83.805 91.3994 83.5187C91.108 83.5187 91.108 83.2324 90.8167 83.2324C89.6512 83.805 88.7771 84.3776 87.903 84.9502C87.3202 83.805 87.0289 82.9461 86.7375 82.3734Z" fill="white"/>
<path d="M80.6188 85.8091C80.9101 84.6639 80.9101 84.0913 80.9101 82.946C82.0756 83.805 83.2411 84.3776 84.1152 84.9502C84.1152 85.2365 84.1152 85.2365 84.1152 85.5228C83.2411 85.8091 82.0756 85.8091 80.6188 85.8091Z" fill="white"/>
<path d="M94.3134 104.133C95.1875 103.56 96.0616 102.129 96.9357 102.415C97.8098 102.415 98.9752 103.846 98.9752 104.705C98.9752 105.278 97.8098 106.709 96.9357 106.709C96.0616 106.709 95.1875 105.564 94.3134 104.992C94.3134 104.705 94.3134 104.419 94.3134 104.133Z" fill="white"/>
<path d="M97.8097 63.1909C98.101 64.6225 98.3924 66.054 98.101 67.4855C98.101 68.3445 97.2269 69.776 96.6442 70.0623C95.7701 70.3486 94.3133 69.776 93.4392 69.2034C92.2737 68.3445 91.691 67.1992 90.5255 66.054C89.0687 64.6225 88.7773 62.9046 89.9428 60.9005C91.1082 59.1826 92.5651 58.3237 94.6046 58.8963C96.6442 59.1826 98.101 61.1868 97.8097 63.1909Z" fill="black"/>
</g>
<defs>
<clipPath id="clip0">
<rect width="81" height="69" fill="white" transform="translate(34 40)"/>
</clipPath>
</defs>
</svg>
