<svg width="271" height="150" viewBox="0 0 271 150" fill="none" xmlns="http://www.w3.org/2000/svg">
<path d="M230 27.0147C242.405 27.5098 251.405 16.3697 252.054 10.2633C252.865 3.24922 248.73 -0.959247 242.892 4.487C240.135 7.04508 236.811 20.6607 245.162 28.0874C251.243 33.5336 261.622 33.4511 269 26.8496" stroke="#D8352A" stroke-width="3" stroke-miterlimit="10" stroke-linecap="round"/>
<g opacity="0.3">
<mask id="mask0" mask-type="alpha" maskUnits="userSpaceOnUse" x="2" y="3" width="238" height="145">
<path fill-rule="evenodd" clip-rule="evenodd" d="M16.9168 102.713C9.58032 109 2.30735 109 2.30735 109C1.28069 102.921 2.24868 88.5921 14.3339 79.9079C15.36 79.1705 16.5301 78.4607 17.8213 77.7781C25.2153 52.8873 54.0179 16.9839 125.893 6.1456C205.022 -5.78647 227.916 18.6597 235.929 38.7406C243.212 56.991 240.519 75.1211 229.484 87.0138C230.587 93.7923 230.182 101.462 225.687 111.19C223.649 115.599 221.62 117.789 219.649 119.918C218.189 121.495 216.76 123.038 215.381 125.425C212.79 129.911 212.437 140.523 212.437 140.523L206.254 148H193.004C193.406 146.92 194.311 145.714 195.419 144.237C199.181 139.223 205.282 131.092 201.984 114.209C201.175 110.066 198.011 105.436 194.515 100.319C192.688 97.6448 190.77 94.8378 189.05 91.8978C172.974 98.1936 155.758 96.3124 140.556 94.6512C132.879 93.8122 125.715 93.0294 119.472 93.3846C110.432 93.8989 101.181 95.9737 93.9209 98.0972C91.1897 109.267 87.6503 119.609 85.1486 124.795C84.452 126.24 83.7241 127.809 82.9721 129.43L82.9714 129.431L82.9705 129.433L82.9701 129.434L82.9701 129.434L82.97 129.434L82.9699 129.434C80.1523 135.508 76.9972 142.309 73.8875 146H64C64 146 68.9004 136.833 69.6451 126.294C70.0778 120.171 69.4092 113.542 68.0136 107.901C64.3144 112.577 59.8689 116.846 54.547 120.406C27.944 138.202 11.7644 130.806 7 124.883C7.70355 123.895 8.55903 122.94 9.46952 121.924C12.9003 118.094 17.1119 113.392 16.9178 102.778C16.9174 102.756 16.9171 102.734 16.9168 102.713ZM162.13 148H171.218C174.392 144.186 181.777 134.442 185.932 125.975C190.086 117.508 192.375 111.768 193 109.957L185.932 100L178.719 103.092C177.661 110.91 174.68 127.663 171.218 132.125C169.145 134.797 166.675 137.14 164.6 139.109C162.344 141.25 160.555 142.946 160.255 144.138C159.793 145.969 160.063 147.476 160.255 148H162.13Z" fill="#737373"/>
</mask>
<g mask="url(#mask0)">
<path d="M88.5076 -170L-170.531 89.977" stroke="#D8352A" stroke-width="3"/>
<path d="M100.289 -158.219L-158.749 101.758" stroke="#D8352A" stroke-width="3"/>
<path d="M111.838 -146.669L-147.2 113.308" stroke="#D8352A" stroke-width="3"/>
<path d="M123.388 -135.12L-135.65 124.857" stroke="#D8352A" stroke-width="3"/>
<path d="M134.938 -123.57L-124.101 136.407" stroke="#D8352A" stroke-width="3"/>
<path d="M146.487 -112.02L-112.551 147.957" stroke="#D8352A" stroke-width="3"/>
<path d="M158.037 -100.471L-101.001 159.506" stroke="#D8352A" stroke-width="3"/>
<path d="M169.587 -88.9211L-89.4517 171.056" stroke="#D8352A" stroke-width="3"/>
<path d="M181.136 -77.3714L-77.9022 182.605" stroke="#D8352A" stroke-width="3"/>
<path d="M192.686 -65.8218L-66.3525 194.155" stroke="#D8352A" stroke-width="3"/>
<path d="M204.235 -54.2722L-54.8029 205.705" stroke="#D8352A" stroke-width="3"/>
<path d="M215.785 -42.7226L-43.2533 217.254" stroke="#D8352A" stroke-width="3"/>
<path d="M227.335 -31.173L-31.7037 228.804" stroke="#D8352A" stroke-width="3"/>
<path d="M238.884 -19.6234L-20.1541 240.354" stroke="#D8352A" stroke-width="3"/>
<path d="M250.434 -8.07375L-8.60445 251.903" stroke="#D8352A" stroke-width="3"/>
<path d="M261.983 3.47588L2.94511 263.453" stroke="#D8352A" stroke-width="3"/>
<path d="M273.533 15.0255L14.4948 275.002" stroke="#D8352A" stroke-width="3"/>
<path d="M285.083 26.5751L26.0444 286.552" stroke="#D8352A" stroke-width="3"/>
<path d="M296.632 38.1247L37.594 298.102" stroke="#D8352A" stroke-width="3"/>
<path d="M308.182 49.6743L49.1436 309.651" stroke="#D8352A" stroke-width="3"/>
<path d="M319.732 61.224L60.6933 321.201" stroke="#D8352A" stroke-width="3"/>
<path d="M331.281 72.7736L72.2428 332.75" stroke="#D8352A" stroke-width="3"/>
<path d="M342.831 84.3232L83.7924 344.3" stroke="#D8352A" stroke-width="3"/>
<path d="M354.38 95.8728L95.3421 355.85" stroke="#D8352A" stroke-width="3"/>
<path d="M365.93 107.422L106.892 367.399" stroke="#D8352A" stroke-width="3"/>
<path d="M377.48 118.972L118.441 378.949" stroke="#D8352A" stroke-width="3"/>
<path d="M389.029 130.522L129.991 390.499" stroke="#D8352A" stroke-width="3"/>
<path d="M400.579 142.071L141.541 402.048" stroke="#D8352A" stroke-width="3"/>
</g>
</g>
<path d="M16.9168 102.713L18.4167 102.694L18.3768 99.4858L15.9407 101.574L16.9168 102.713ZM2.30735 109L0.828292 109.25L1.03944 110.5H2.30735V109ZM14.3339 79.9079L15.2092 81.126H15.2092L14.3339 79.9079ZM17.8213 77.7781L18.5223 79.1042L19.0796 78.8096L19.2592 78.2053L17.8213 77.7781ZM125.893 6.1456L125.669 4.66237L125.893 6.1456ZM235.929 38.7406L234.536 39.2965V39.2965L235.929 38.7406ZM229.484 87.0138L228.384 85.9935L227.885 86.531L228.003 87.2548L229.484 87.0138ZM225.687 111.19L227.048 111.819V111.819L225.687 111.19ZM219.649 119.918L220.75 120.937L219.649 119.918ZM215.381 125.425L214.082 124.675V124.675L215.381 125.425ZM212.437 140.523L213.593 141.479L213.919 141.084L213.936 140.573L212.437 140.523ZM206.254 148V149.5H206.96L207.409 148.956L206.254 148ZM193.004 148L191.598 147.477L190.845 149.5H193.004V148ZM195.419 144.237L196.619 145.137V145.137L195.419 144.237ZM201.984 114.209L203.456 113.922V113.922L201.984 114.209ZM194.515 100.319L195.754 99.4726V99.4726L194.515 100.319ZM189.05 91.8978L190.345 91.1403L189.697 90.0335L188.503 90.5011L189.05 91.8978ZM140.556 94.6512L140.719 93.1601L140.556 94.6512ZM119.472 93.3846L119.386 91.887L119.472 93.3846ZM93.9209 98.0972L93.4998 96.6575L92.6693 96.9004L92.4638 97.7409L93.9209 98.0972ZM85.1486 124.795L86.4996 125.447L85.1486 124.795ZM82.9721 129.43L84.3319 130.063L84.3328 130.061L82.9721 129.43ZM82.9714 129.431L81.6115 128.798L81.6074 128.807L82.9714 129.431ZM82.9705 129.433L81.6064 128.809L81.6062 128.809L82.9705 129.433ZM82.9701 129.434L81.6059 128.81L81.5725 128.883L81.5471 128.96L82.9701 129.434ZM82.9701 129.434L84.3488 130.025L84.3734 129.967L84.3931 129.908L82.9701 129.434ZM82.97 129.434L84.3116 130.105L84.3314 130.066L84.3487 130.025L82.97 129.434ZM82.9699 129.434L81.6283 128.763L81.6185 128.783L81.6092 128.803L82.9699 129.434ZM73.8875 146V147.5H74.5851L75.0346 146.966L73.8875 146ZM64 146L62.6772 145.293L61.4973 147.5H64V146ZM69.6451 126.294L68.1488 126.189L69.6451 126.294ZM68.0136 107.901L69.4697 107.541L68.735 104.572L66.8372 106.971L68.0136 107.901ZM54.547 120.406L55.3811 121.653L54.547 120.406ZM7 124.883L5.77819 124.013L5.11923 124.938L5.83123 125.823L7 124.883ZM9.46952 121.924L8.35223 120.923H8.35223L9.46952 121.924ZM16.9178 102.778L18.4175 102.751L18.4175 102.751L16.9178 102.778ZM171.218 148V149.5H171.921L172.371 148.959L171.218 148ZM193 109.957L194.418 110.446L194.669 109.717L194.223 109.088L193 109.957ZM185.932 100L187.155 99.1317L186.454 98.1442L185.341 98.6213L185.932 100ZM178.719 103.092L178.128 101.713L177.347 102.048L177.233 102.891L178.719 103.092ZM171.218 132.125L172.403 133.044L171.218 132.125ZM164.6 139.109L163.568 138.021H163.568L164.6 139.109ZM160.255 144.138L161.709 144.505L161.709 144.505L160.255 144.138ZM160.255 148L158.847 148.516L159.207 149.5H160.255V148ZM15.9407 101.574C12.4624 104.555 9.0116 106.035 6.44666 106.772C5.16338 107.141 4.10295 107.323 3.37476 107.413C3.01086 107.458 2.73065 107.48 2.54793 107.49C2.4566 107.495 2.38972 107.498 2.34901 107.499C2.32867 107.5 2.31488 107.5 2.30786 107.5C2.30435 107.5 2.30253 107.5 2.30244 107.5C2.30239 107.5 2.30277 107.5 2.30359 107.5C2.304 107.5 2.30452 107.5 2.30514 107.5C2.30545 107.5 2.30601 107.5 2.30616 107.5C2.30674 107.5 2.30735 107.5 2.30735 109C2.30735 110.5 2.30801 110.5 2.3087 110.5C2.30896 110.5 2.30968 110.5 2.31022 110.5C2.31129 110.5 2.31247 110.5 2.31376 110.5C2.31635 110.5 2.31938 110.5 2.32286 110.5C2.32981 110.5 2.33854 110.5 2.34901 110.5C2.36996 110.499 2.39791 110.499 2.43262 110.498C2.50204 110.496 2.59858 110.492 2.72044 110.485C2.96412 110.471 3.30943 110.444 3.74201 110.39C4.60676 110.284 5.82311 110.073 7.27512 109.656C10.1808 108.821 14.0347 107.158 17.8929 103.852L15.9407 101.574ZM3.7864 108.75C2.81301 102.987 3.76365 89.3506 15.2092 81.126L13.4586 78.6898C0.73371 87.8336 -0.251624 102.855 0.828292 109.25L3.7864 108.75ZM15.2092 81.126C16.1687 80.4366 17.2782 79.7619 18.5223 79.1042L17.1202 76.452C15.782 77.1595 14.5513 77.9045 13.4586 78.6898L15.2092 81.126ZM19.2592 78.2053C26.4552 53.9811 54.6953 18.3987 126.117 7.62883L125.669 4.66237C53.3404 15.5691 23.9754 51.7935 16.3834 77.351L19.2592 78.2053ZM126.117 7.62883C165.538 1.68437 190.729 4.83984 206.988 11.8167C223.178 18.7639 230.651 29.5598 234.536 39.2965L237.322 38.1846C233.195 27.8405 225.214 16.3728 208.171 9.05978C191.198 1.77634 165.377 -1.32524 125.669 4.66237L126.117 7.62883ZM234.536 39.2965C241.647 57.117 238.952 74.6046 228.384 85.9935L230.583 88.0341C242.086 75.6377 244.777 56.865 237.322 38.1846L234.536 39.2965ZM228.003 87.2548C229.06 93.7474 228.691 101.113 224.325 110.56L227.048 111.819C231.673 101.811 232.114 93.8372 230.964 86.7728L228.003 87.2548ZM224.325 110.56C222.387 114.754 220.486 116.807 218.548 118.899L220.75 120.937C222.755 118.772 224.911 116.444 227.048 111.819L224.325 110.56ZM218.548 118.899C217.085 120.48 215.552 122.13 214.082 124.675L216.68 126.175C217.967 123.947 219.293 122.511 220.75 120.937L218.548 118.899ZM214.082 124.675C212.619 127.209 211.86 131.265 211.45 134.465C211.239 136.109 211.111 137.606 211.036 138.691C210.998 139.235 210.974 139.677 210.959 139.984C210.951 140.138 210.946 140.259 210.943 140.341C210.941 140.383 210.94 140.415 210.939 140.437C210.938 140.448 210.938 140.456 210.938 140.463C210.938 140.466 210.938 140.468 210.938 140.47C210.938 140.471 210.938 140.471 210.938 140.472C210.938 140.472 210.938 140.472 210.938 140.473C210.938 140.473 210.938 140.473 212.437 140.523C213.936 140.573 213.936 140.573 213.936 140.573C213.936 140.573 213.936 140.573 213.936 140.573C213.936 140.573 213.936 140.573 213.936 140.572C213.936 140.571 213.936 140.57 213.936 140.568C213.936 140.564 213.936 140.557 213.937 140.548C213.938 140.529 213.939 140.501 213.94 140.464C213.943 140.389 213.948 140.277 213.955 140.132C213.969 139.842 213.993 139.42 214.029 138.898C214.101 137.854 214.224 136.417 214.425 134.847C214.839 131.62 215.553 128.127 216.68 126.175L214.082 124.675ZM211.281 139.567L205.098 147.044L207.409 148.956L213.593 141.479L211.281 139.567ZM206.254 146.5H193.004V149.5H206.254V146.5ZM194.409 148.523C194.718 147.695 195.456 146.687 196.619 145.137L194.219 143.337C193.166 144.741 192.094 146.146 191.598 147.477L194.409 148.523ZM196.619 145.137C198.506 142.622 201.106 139.168 202.773 134.147C204.445 129.109 205.15 122.592 203.456 113.922L200.512 114.497C202.116 122.709 201.42 128.699 199.925 133.201C198.425 137.72 196.094 140.838 194.219 143.337L196.619 145.137ZM203.456 113.922C203.005 111.613 201.919 109.252 200.558 106.882C199.194 104.506 197.493 102.019 195.754 99.4726L193.277 101.165C195.033 103.736 196.662 106.122 197.956 108.376C199.254 110.636 200.154 112.662 200.512 114.497L203.456 113.922ZM195.754 99.4726C193.922 96.7919 192.034 94.0276 190.345 91.1403L187.756 92.6553C189.507 95.648 191.454 98.4976 193.277 101.165L195.754 99.4726ZM188.503 90.5011C172.825 96.6411 155.982 94.8279 140.719 93.1601L140.393 96.1423C155.534 97.7968 173.123 99.7462 189.597 93.2945L188.503 90.5011ZM140.719 93.1601C133.078 92.3251 125.779 91.5233 119.386 91.887L119.557 94.8822C125.65 94.5355 132.68 95.2994 140.393 96.1423L140.719 93.1601ZM119.386 91.887C110.193 92.41 100.823 94.5156 93.4998 96.6575L94.342 99.5369C101.539 97.4318 110.671 95.3877 119.557 94.8822L119.386 91.887ZM92.4638 97.7409C89.745 108.86 86.2353 119.089 83.7975 124.144L86.4996 125.447C89.0653 120.128 92.6345 109.674 95.378 98.4535L92.4638 97.7409ZM83.7975 124.144C83.0951 125.6 82.3623 127.18 81.6114 128.798L84.3328 130.061C85.0859 128.438 85.8088 126.879 86.4996 125.447L83.7975 124.144ZM81.6122 128.797L81.6116 128.798L84.3313 130.064L84.3319 130.063L81.6122 128.797ZM81.6074 128.807L81.6064 128.809L84.3345 130.057L84.3355 130.055L81.6074 128.807ZM81.6062 128.809L81.6059 128.81L84.3343 130.058L84.3347 130.057L81.6062 128.809ZM81.5471 128.96L81.547 128.96L84.3931 129.908L84.3931 129.908L81.5471 128.96ZM81.5914 128.843L81.5913 128.843L84.3487 130.025L84.3488 130.025L81.5914 128.843ZM81.6284 128.763L81.6283 128.763L84.3116 130.105L84.3116 130.105L81.6284 128.763ZM81.6092 128.803C78.7528 134.96 75.6892 141.534 72.7404 145.034L75.0346 146.966C78.3053 143.085 81.5518 136.056 84.3306 130.066L81.6092 128.803ZM73.8875 144.5H64V147.5H73.8875V144.5ZM64 146C65.3229 146.707 65.323 146.707 65.3232 146.706C65.3233 146.706 65.3235 146.706 65.3237 146.706C65.324 146.705 65.3244 146.704 65.3249 146.703C65.3259 146.701 65.3272 146.699 65.3287 146.696C65.3318 146.69 65.3361 146.682 65.3416 146.672C65.3524 146.651 65.3678 146.622 65.3874 146.584C65.4267 146.508 65.483 146.398 65.554 146.256C65.6961 145.971 65.8974 145.557 66.1401 145.03C66.6252 143.975 67.2772 142.462 67.9523 140.614C69.2988 136.927 70.7558 131.857 71.1414 126.4L68.1488 126.189C67.7897 131.27 66.4242 136.053 65.1343 139.584C64.4913 141.345 63.8715 142.783 63.4146 143.776C63.1862 144.273 62.9989 144.657 62.87 144.915C62.8056 145.044 62.7559 145.142 62.723 145.205C62.7066 145.237 62.6943 145.26 62.6866 145.275C62.6827 145.282 62.68 145.287 62.6784 145.29C62.6776 145.292 62.6771 145.293 62.6769 145.293C62.6768 145.294 62.6768 145.294 62.6768 145.294C62.6768 145.293 62.6769 145.293 62.6769 145.293C62.677 145.293 62.6772 145.293 64 146ZM71.1414 126.4C71.5859 120.109 70.9002 113.323 69.4697 107.541L66.5575 108.262C67.9183 113.762 68.5696 120.233 68.1488 126.189L71.1414 126.4ZM66.8372 106.971C63.226 111.536 58.8934 115.694 53.713 119.16L55.3811 121.653C60.8444 117.998 65.4029 113.619 69.19 108.832L66.8372 106.971ZM53.713 119.16C27.5036 136.692 12.2763 129.049 8.16877 123.943L5.83123 125.823C11.2525 132.563 28.3845 139.712 55.3811 121.653L53.713 119.16ZM8.22181 125.753C8.86775 124.846 9.66374 123.955 10.5868 122.925L8.35223 120.923C7.45433 121.925 6.53934 122.944 5.77819 124.013L8.22181 125.753ZM10.5868 122.925C12.2972 121.015 14.341 118.744 15.9005 115.554C17.4713 112.341 18.5186 108.274 18.4175 102.751L15.418 102.805C15.5111 107.896 14.5497 111.487 13.2054 114.236C11.85 117.008 10.0726 119.003 8.35223 120.923L10.5868 122.925ZM18.4175 102.751C18.4172 102.732 18.4169 102.713 18.4167 102.694L15.4169 102.731C15.4172 102.756 15.4176 102.781 15.418 102.805L18.4175 102.751ZM171.218 146.5H162.13V149.5H171.218V146.5ZM184.585 125.314C180.508 133.623 173.21 143.261 170.065 147.041L172.371 148.959C175.573 145.112 183.046 135.26 187.278 126.636L184.585 125.314ZM191.582 109.467C190.984 111.2 188.724 116.879 184.585 125.314L187.278 126.636C191.449 118.137 193.766 112.337 194.418 110.446L191.582 109.467ZM184.709 100.868L191.777 110.825L194.223 109.088L187.155 99.1317L184.709 100.868ZM179.31 104.47L186.523 101.379L185.341 98.6213L178.128 101.713L179.31 104.47ZM172.403 133.044C173.433 131.716 174.333 129.626 175.123 127.285C175.928 124.899 176.671 122.089 177.332 119.202C178.655 113.424 179.672 107.235 180.206 103.293L177.233 102.891C176.708 106.766 175.706 112.863 174.408 118.532C173.759 121.368 173.041 124.071 172.281 126.326C171.505 128.625 170.734 130.302 170.033 131.205L172.403 133.044ZM165.633 140.197C167.696 138.239 170.249 135.82 172.403 133.044L170.033 131.205C168.041 133.773 165.653 136.042 163.568 138.021L165.633 140.197ZM161.709 144.505C161.758 144.314 162.027 143.84 162.803 142.99C163.525 142.198 164.491 141.28 165.633 140.197L163.568 138.021C162.453 139.078 161.397 140.079 160.586 140.969C159.827 141.8 159.053 142.771 158.8 143.772L161.709 144.505ZM161.663 147.483C161.576 147.246 161.32 146.048 161.709 144.505L158.8 143.772C158.266 145.89 158.549 147.705 158.847 148.516L161.663 147.483ZM162.13 146.5H160.255V149.5H162.13V146.5Z" fill="#D8352A"/>
</svg>
