<svg width="106" height="186" viewBox="0 0 106 186" fill="none" xmlns="http://www.w3.org/2000/svg">
<g opacity="0.3">
<mask id="mask0" mask-type="alpha" maskUnits="userSpaceOnUse" x="0" y="80" width="106" height="106">
<path d="M7.17473 89.6297C5.45201 81.5747 11.3631 78.9628 16.1734 81.5747C18.646 82.9172 28.3045 89.6297 48.52 89.6297C62.548 89.6297 77.6457 78.705 91.203 83.5884C92.9138 84.2047 96.3339 89.8135 92.7838 98.3954C88.3246 109.175 99.9585 113.676 104.579 125.64C109.2 137.604 100.931 163.191 102.512 170.772C104.093 178.353 108.957 187 102.512 185.224C96.0671 183.447 83.1771 183.21 61.6532 185.224C40.1293 187.237 27.7257 180.485 23.5911 180.485C19.4566 180.485 2.63384e-07 182.729 0 180.485C-1.54068e-06 167.361 12.0388 169.943 5.10737 159.519C-1.82406 149.095 0 127.13 7.17473 109.175C9.2833 103.898 8.39077 95.3156 7.17473 89.6297Z" fill="#737373"/>
</mask>
<g mask="url(#mask0)">
<path d="M2 82.5986L4.3 79.5986C5.46005 78.0855 7.73995 78.0855 8.9 79.5986V79.5986C10.06 81.1117 12.34 81.1117 13.5 79.5986V79.5986C14.66 78.0855 16.94 78.0855 18.1 79.5986V79.5986C19.26 81.1117 21.54 81.1117 22.7 79.5986L25 76.5986" stroke="#8CAD22" stroke-width="3"/>
<path d="M2 96.5986L4.3 93.5986C5.46005 92.0855 7.73995 92.0855 8.9 93.5986V93.5986C10.06 95.1117 12.34 95.1117 13.5 93.5986V93.5986C14.66 92.0855 16.94 92.0855 18.1 93.5986V93.5986C19.26 95.1117 21.54 95.1117 22.7 93.5986L25 90.5986" stroke="#8CAD22" stroke-width="3"/>
<path d="M2 110.599L4.3 107.599C5.46005 106.086 7.73995 106.086 8.9 107.599V107.599C10.06 109.112 12.34 109.112 13.5 107.599V107.599C14.66 106.086 16.94 106.086 18.1 107.599V107.599C19.26 109.112 21.54 109.112 22.7 107.599L25 104.599" stroke="#8CAD22" stroke-width="3"/>
<path d="M2 124.599L4.3 121.599C5.46005 120.086 7.73995 120.086 8.9 121.599V121.599C10.06 123.112 12.34 123.112 13.5 121.599V121.599C14.66 120.086 16.94 120.086 18.1 121.599V121.599C19.26 123.112 21.54 123.112 22.7 121.599L25 118.599" stroke="#8CAD22" stroke-width="3"/>
<path d="M2 138.599L4.3 135.599C5.46005 134.086 7.73995 134.086 8.9 135.599V135.599C10.06 137.112 12.34 137.112 13.5 135.599V135.599C14.66 134.086 16.94 134.086 18.1 135.599V135.599C19.26 137.112 21.54 137.112 22.7 135.599L25 132.599" stroke="#8CAD22" stroke-width="3"/>
<path d="M2 152.599L4.3 149.599C5.46005 148.086 7.73995 148.086 8.9 149.599V149.599C10.06 151.112 12.34 151.112 13.5 149.599V149.599C14.66 148.086 16.94 148.086 18.1 149.599V149.599C19.26 151.112 21.54 151.112 22.7 149.599L25 146.599" stroke="#8CAD22" stroke-width="3"/>
<path d="M2 166.599L4.3 163.599C5.46005 162.086 7.73995 162.086 8.9 163.599V163.599C10.06 165.112 12.34 165.112 13.5 163.599V163.599C14.66 162.086 16.94 162.086 18.1 163.599V163.599C19.26 165.112 21.54 165.112 22.7 163.599L25 160.599" stroke="#8CAD22" stroke-width="3"/>
<path d="M2 180.599L4.3 177.599C5.46005 176.086 7.73995 176.086 8.9 177.599V177.599C10.06 179.112 12.34 179.112 13.5 177.599V177.599C14.66 176.086 16.94 176.086 18.1 177.599V177.599C19.26 179.112 21.54 179.112 22.7 177.599L25 174.599" stroke="#8CAD22" stroke-width="3"/>
<path d="M33 82.5986L35.3 79.5986C36.46 78.0855 38.74 78.0855 39.9 79.5986V79.5986C41.06 81.1117 43.34 81.1117 44.5 79.5986V79.5986C45.66 78.0855 47.94 78.0855 49.1 79.5986V79.5986C50.26 81.1117 52.54 81.1117 53.7 79.5986L56 76.5986" stroke="#8CAD22" stroke-width="3"/>
<path d="M33 96.5986L35.3 93.5986C36.46 92.0855 38.74 92.0855 39.9 93.5986V93.5986C41.06 95.1117 43.34 95.1117 44.5 93.5986V93.5986C45.66 92.0855 47.94 92.0855 49.1 93.5986V93.5986C50.26 95.1117 52.54 95.1117 53.7 93.5986L56 90.5986" stroke="#8CAD22" stroke-width="3"/>
<path d="M33 110.599L35.3 107.599C36.46 106.086 38.74 106.086 39.9 107.599V107.599C41.06 109.112 43.34 109.112 44.5 107.599V107.599C45.66 106.086 47.94 106.086 49.1 107.599V107.599C50.26 109.112 52.54 109.112 53.7 107.599L56 104.599" stroke="#8CAD22" stroke-width="3"/>
<path d="M33 124.599L35.3 121.599C36.46 120.086 38.74 120.086 39.9 121.599V121.599C41.06 123.112 43.34 123.112 44.5 121.599V121.599C45.66 120.086 47.94 120.086 49.1 121.599V121.599C50.26 123.112 52.54 123.112 53.7 121.599L56 118.599" stroke="#8CAD22" stroke-width="3"/>
<path d="M33 138.599L35.3 135.599C36.46 134.086 38.74 134.086 39.9 135.599V135.599C41.06 137.112 43.34 137.112 44.5 135.599V135.599C45.66 134.086 47.94 134.086 49.1 135.599V135.599C50.26 137.112 52.54 137.112 53.7 135.599L56 132.599" stroke="#8CAD22" stroke-width="3"/>
<path d="M33 152.599L35.3 149.599C36.46 148.086 38.74 148.086 39.9 149.599V149.599C41.06 151.112 43.34 151.112 44.5 149.599V149.599C45.66 148.086 47.94 148.086 49.1 149.599V149.599C50.26 151.112 52.54 151.112 53.7 149.599L56 146.599" stroke="#8CAD22" stroke-width="3"/>
<path d="M33 166.599L35.3 163.599C36.46 162.086 38.74 162.086 39.9 163.599V163.599C41.06 165.112 43.34 165.112 44.5 163.599V163.599C45.66 162.086 47.94 162.086 49.1 163.599V163.599C50.26 165.112 52.54 165.112 53.7 163.599L56 160.599" stroke="#8CAD22" stroke-width="3"/>
<path d="M33 180.599L35.3 177.599C36.46 176.086 38.74 176.086 39.9 177.599V177.599C41.06 179.112 43.34 179.112 44.5 177.599V177.599C45.66 176.086 47.94 176.086 49.1 177.599V177.599C50.26 179.112 52.54 179.112 53.7 177.599L56 174.599" stroke="#8CAD22" stroke-width="3"/>
<path d="M64 82.5986L66.3 79.5986C67.46 78.0855 69.74 78.0855 70.9 79.5986V79.5986C72.06 81.1117 74.34 81.1117 75.5 79.5986V79.5986C76.66 78.0855 78.94 78.0855 80.1 79.5986V79.5986C81.26 81.1117 83.54 81.1117 84.7 79.5986L87 76.5986" stroke="#8CAD22" stroke-width="3"/>
<path d="M64 96.5986L66.3 93.5986C67.46 92.0855 69.74 92.0855 70.9 93.5986V93.5986C72.06 95.1117 74.34 95.1117 75.5 93.5986V93.5986C76.66 92.0855 78.94 92.0855 80.1 93.5986V93.5986C81.26 95.1117 83.54 95.1117 84.7 93.5986L87 90.5986" stroke="#8CAD22" stroke-width="3"/>
<path d="M64 110.599L66.3 107.599C67.46 106.086 69.74 106.086 70.9 107.599V107.599C72.06 109.112 74.34 109.112 75.5 107.599V107.599C76.66 106.086 78.94 106.086 80.1 107.599V107.599C81.26 109.112 83.54 109.112 84.7 107.599L87 104.599" stroke="#8CAD22" stroke-width="3"/>
<path d="M64 124.599L66.3 121.599C67.46 120.086 69.74 120.086 70.9 121.599V121.599C72.06 123.112 74.34 123.112 75.5 121.599V121.599C76.66 120.086 78.94 120.086 80.1 121.599V121.599C81.26 123.112 83.54 123.112 84.7 121.599L87 118.599" stroke="#8CAD22" stroke-width="3"/>
<path d="M64 138.599L66.3 135.599C67.46 134.086 69.74 134.086 70.9 135.599V135.599C72.06 137.112 74.34 137.112 75.5 135.599V135.599C76.66 134.086 78.94 134.086 80.1 135.599V135.599C81.26 137.112 83.54 137.112 84.7 135.599L87 132.599" stroke="#8CAD22" stroke-width="3"/>
<path d="M64 152.599L66.3 149.599C67.46 148.086 69.74 148.086 70.9 149.599V149.599C72.06 151.112 74.34 151.112 75.5 149.599V149.599C76.66 148.086 78.94 148.086 80.1 149.599V149.599C81.26 151.112 83.54 151.112 84.7 149.599L87 146.599" stroke="#8CAD22" stroke-width="3"/>
<path d="M64 166.599L66.3 163.599C67.46 162.086 69.74 162.086 70.9 163.599V163.599C72.06 165.112 74.34 165.112 75.5 163.599V163.599C76.66 162.086 78.94 162.086 80.1 163.599V163.599C81.26 165.112 83.54 165.112 84.7 163.599L87 160.599" stroke="#8CAD22" stroke-width="3"/>
<path d="M64 180.599L66.3 177.599C67.46 176.086 69.74 176.086 70.9 177.599V177.599C72.06 179.112 74.34 179.112 75.5 177.599V177.599C76.66 176.086 78.94 176.086 80.1 177.599V177.599C81.26 179.112 83.54 179.112 84.7 177.599L87 174.599" stroke="#8CAD22" stroke-width="3"/>
<path d="M95 82.5986L97.3 79.5986C98.46 78.0855 100.74 78.0855 101.9 79.5986V79.5986C103.06 81.1117 105.34 81.1117 106.5 79.5986V79.5986C107.66 78.0855 109.94 78.0855 111.1 79.5986V79.5986C112.26 81.1117 114.54 81.1117 115.7 79.5986L118 76.5986" stroke="#8CAD22" stroke-width="3"/>
<path d="M95 96.5986L97.3 93.5986C98.46 92.0855 100.74 92.0855 101.9 93.5986V93.5986C103.06 95.1117 105.34 95.1117 106.5 93.5986V93.5986C107.66 92.0855 109.94 92.0855 111.1 93.5986V93.5986C112.26 95.1117 114.54 95.1117 115.7 93.5986L118 90.5986" stroke="#8CAD22" stroke-width="3"/>
<path d="M95 110.599L97.3 107.599C98.46 106.086 100.74 106.086 101.9 107.599V107.599C103.06 109.112 105.34 109.112 106.5 107.599V107.599C107.66 106.086 109.94 106.086 111.1 107.599V107.599C112.26 109.112 114.54 109.112 115.7 107.599L118 104.599" stroke="#8CAD22" stroke-width="3"/>
<path d="M95 124.599L97.3 121.599C98.46 120.086 100.74 120.086 101.9 121.599V121.599C103.06 123.112 105.34 123.112 106.5 121.599V121.599C107.66 120.086 109.94 120.086 111.1 121.599V121.599C112.26 123.112 114.54 123.112 115.7 121.599L118 118.599" stroke="#8CAD22" stroke-width="3"/>
<path d="M95 138.599L97.3 135.599C98.46 134.086 100.74 134.086 101.9 135.599V135.599C103.06 137.112 105.34 137.112 106.5 135.599V135.599C107.66 134.086 109.94 134.086 111.1 135.599V135.599C112.26 137.112 114.54 137.112 115.7 135.599L118 132.599" stroke="#8CAD22" stroke-width="3"/>
<path d="M95 152.599L97.3 149.599C98.46 148.086 100.74 148.086 101.9 149.599V149.599C103.06 151.112 105.34 151.112 106.5 149.599V149.599C107.66 148.086 109.94 148.086 111.1 149.599V149.599C112.26 151.112 114.54 151.112 115.7 149.599L118 146.599" stroke="#8CAD22" stroke-width="3"/>
<path d="M95 166.599L97.3 163.599C98.46 162.086 100.74 162.086 101.9 163.599V163.599C103.06 165.112 105.34 165.112 106.5 163.599V163.599C107.66 162.086 109.94 162.086 111.1 163.599V163.599C112.26 165.112 114.54 165.112 115.7 163.599L118 160.599" stroke="#8CAD22" stroke-width="3"/>
<path d="M95 180.599L97.3 177.599C98.46 176.086 100.74 176.086 101.9 177.599V177.599C103.06 179.112 105.34 179.112 106.5 177.599V177.599C107.66 176.086 109.94 176.086 111.1 177.599V177.599C112.26 179.112 114.54 179.112 115.7 177.599L118 174.599" stroke="#8CAD22" stroke-width="3"/>
</g>
</g>
<path d="M8.64156 89.316C7.85833 85.6538 8.8778 83.6943 10.097 82.822C11.3859 81.8999 13.4293 81.7915 15.4577 82.8929C15.6448 82.9945 15.8856 83.1351 16.1808 83.3075C17.7035 84.1965 20.6744 85.9312 25.1956 87.5207C30.6041 89.4221 38.2407 91.1297 48.52 91.1297C54.5018 91.1297 60.6848 89.2187 66.6033 87.3896C67.9035 86.9877 69.1909 86.5898 70.4606 86.217C77.6779 84.0978 84.4151 82.7377 90.6946 84.9997C90.6938 84.9994 90.6949 85.0001 90.6979 85.0019C90.7334 85.0237 91.0286 85.2052 91.4291 85.7964C91.8263 86.3829 92.2353 87.243 92.5093 88.3617C93.0532 90.5819 93.0598 93.8041 91.3977 97.822C90.1693 100.792 90.0208 103.423 90.6414 105.884C91.2493 108.295 92.5693 110.431 94.0697 112.464C94.8299 113.494 95.6345 114.502 96.4485 115.521C98.9364 118.637 101.512 121.862 103.18 126.181C104.23 128.898 104.583 132.507 104.484 136.637C104.386 140.744 103.845 145.228 103.202 149.633C102.936 151.448 102.65 153.268 102.372 155.038C101.984 157.509 101.611 159.882 101.331 162.009C100.855 165.621 100.588 168.894 101.044 171.078C101.456 173.054 102.078 175.082 102.654 176.925C102.693 177.053 102.733 177.179 102.772 177.304C103.312 179.03 103.788 180.552 104.054 181.816C104.196 182.49 104.263 183.022 104.261 183.426C104.261 183.623 104.243 183.765 104.222 183.861C104.214 183.895 104.207 183.921 104.201 183.941C104.194 183.942 104.186 183.943 104.178 183.945C104.004 183.974 103.617 183.972 102.911 183.778C99.4961 182.836 94.5052 182.332 87.7439 182.302C80.9596 182.272 72.3038 182.721 61.5135 183.73C50.9417 184.719 42.6222 183.556 36.4342 182.147C33.653 181.514 31.3038 180.832 29.3394 180.261C29.112 180.195 28.8896 180.131 28.6724 180.068C27.6347 179.768 26.6913 179.501 25.8707 179.311C25.0642 179.123 24.2835 178.985 23.5911 178.985C22.4883 178.985 20.4266 179.132 18.0518 179.305C17.8752 179.318 17.6966 179.331 17.516 179.344C15.2312 179.511 12.643 179.7 10.167 179.829C7.48336 179.969 4.9906 180.035 3.1881 179.934C2.45636 179.893 1.89994 179.828 1.51404 179.749C1.61607 177.12 2.26255 175.289 3.07164 173.889C3.84326 172.553 4.77056 171.575 5.72577 170.568C5.89983 170.385 6.07481 170.2 6.24994 170.013C7.32266 168.862 8.5129 167.476 8.72491 165.507C8.93556 163.552 8.15314 161.39 6.35644 158.688C3.15746 153.877 1.86891 146.174 2.34907 137.252C2.82617 128.386 5.03709 118.567 8.56764 109.731C9.7355 106.809 10.0347 103.1 9.92071 99.5081C9.80573 95.8846 9.2641 92.2268 8.64156 89.316Z" stroke="#8CAD22" stroke-width="3"/>
<path d="M30.0871 79.5213C24.9798 76.3819 24.2388 71.1622 24.5611 68.2455L67.3843 59.3695L71.2885 77.4909C65.256 80.3484 56.7299 81.792 48.754 82.0546C44.5601 82.1927 40.5787 82.002 37.2718 81.54C33.9105 81.0705 31.425 80.3438 30.0871 79.5213Z" stroke="#8CAD22" stroke-width="3"/>
<path d="M46 62.5986L39 26.5986" stroke="#8CAD22" stroke-width="3"/>
<path d="M21.4717 7.95367L23.2417 16.2673C24.6792 23.0196 31.3212 27.3413 38.0769 25.9201V25.9201C44.8326 24.499 49.1438 17.8732 47.7062 11.1209L45.9362 2.80725" stroke="#8CAD22" stroke-width="3"/>
<path d="M15 8.59863L52.4227 2" stroke="#8CAD22" stroke-width="3"/>
</svg>
